Coordinates
version=1
nRows=20
nColumns=34
inDegrees=yes

Units are S.I. units (second, meters, Newtons, ...)
If the header above contains a line with 'inDegrees', this indicates whether rotational values are in degrees (yes) or radians (no).

endheader
time	pelvis_tilt	pelvis_list	pelvis_rotation	pelvis_tx	pelvis_ty	pelvis_tz	hip_flexion_r	hip_adduction_r	hip_rotation_r	knee_angle_r	ankle_angle_r	subtalar_angle_r	mtp_angle_r	hip_flexion_l	hip_adduction_l	hip_rotation_l	knee_angle_l	ankle_angle_l	subtalar_angle_l	mtp_angle_l	lumbar_extension	lumbar_bending	lumbar_rotation	arm_flex_r	arm_add_r	arm_rot_r	elbow_flex_r	pro_sup_r	arm_flex_l	arm_add_l	arm_rot_l	elbow_flex_l	pro_sup_l
      7.23333330	     16.39563337	      3.57478025	    -58.67988658	     -3.04909409	      1.00973825	      0.01229984	     28.96011978	    -32.97193435	      1.99459439	     72.33828675	      6.33821175	    -35.00000000	      0.00000000	     23.36948426	    -24.58240401	    -12.75685179	     21.25020005	    -27.82574580	    -22.28649046	      0.00000000	     -0.42252657	      9.00325507	    -32.93462780	   -330.22252466	    -28.41954113	    -34.76468704	    134.73643687	    119.74817918	   -294.14942334	    -31.48820689	   -103.15467545	     65.73693781	    114.49049630
      7.25000000	     15.90006026	      3.60279156	    -58.17440278	     -2.99437363	      1.01549243	      0.01262970	     27.34489247	    -34.12043842	      1.95256301	     69.65460871	      3.48710925	    -35.00000000	      0.00000000	     23.19777257	    -23.53952359	    -13.31628563	     22.99287289	    -27.82200097	    -22.35504831	      0.00000000	      2.36061639	      9.49478005	    -30.42554390	   -329.49833985	    -31.68201820	    -31.62197395	    138.74017878	    119.71248658	   -295.53614327	    -24.68057068	   -105.78663673	     76.99741324	    113.60317923
      7.26666670	     15.53329768	      3.70364916	    -57.31264690	     -2.93561410	      1.01707909	      0.01730351	     24.71415376	    -35.20025153	      2.81422482	     66.63970954	     -0.32679773	    -35.00000000	      0.00000000	     22.96913016	    -22.17766419	    -14.38094536	     25.03445214	    -28.05626778	    -22.42422416	      0.00000000	      3.37134643	      8.25747631	    -17.71104526	   -350.87551371	    -43.95868230	    -60.36583220	    147.26907826	    111.51914391	   -290.80556848	     -7.07039624	   -103.90052925	     88.07143752	    112.31079155
      7.28333330	     14.93331855	      4.13244122	    -56.25000338	     -2.87629614	      1.01679837	      0.02278184	     21.37906075	    -37.10963085	      3.52916433	     63.58112949	     -5.15763227	    -35.00000000	      0.00000000	     23.50014945	    -20.80480820	    -15.22511528	     27.58783072	    -28.05733374	    -22.95397373	      0.00000000	      3.37905561	      9.32599531	     -0.52477443	   -400.04069355	    -44.29278499	   -126.34900268	    150.00035077	     87.10981274	   -288.49270733	      5.54564118	   -104.67333499	     86.44326725	    119.74817918
      7.30000000	     14.41574041	      4.05103507	    -55.17495264	     -2.81954852	      1.02046972	      0.02642568	     16.48772184	    -38.99896800	      3.36363315	     59.89175477	    -10.99992020	    -35.00000000	      0.00000000	     23.52910012	    -19.56669970	    -15.83641717	     29.98362253	    -27.28189609	    -23.72297906	      0.00000000	      6.27276109	      9.03804307	     -0.51361577	   -410.86700265	    -50.29346467	   -131.89055260	    150.00035077	     86.55441228	   -291.36369789	     -2.56271185	   -110.00848638	     86.20803515	    119.74817918
      7.31666670	     13.23815162	      4.22616670	    -53.10156835	     -2.75922383	      1.02755467	      0.03116820	     10.57293270	    -40.33114864	      0.78979039	     55.46979827	    -16.41487303	    -35.00000000	      0.00000000	     24.15895571	    -17.95100137	    -14.66848368	     32.34077514	    -24.34842385	    -24.90090300	      0.00000000	      4.91754034	     13.79027055	     11.60584077	   -438.68432470	    -25.32043978	   -179.73145319	    143.38286535	     80.87561825	   -292.81368422	     -8.81871950	   -118.02415316	     62.70123124	    119.74817918
      7.33333330	     11.95256341	      4.53775317	    -50.01167065	     -2.70040982	      1.03732817	      0.03873668	      4.08110558	    -40.23954925	     -2.55781646	     51.21665608	    -21.99251207	    -35.00000000	      0.00000000	     23.85881684	    -15.46826030	    -12.42751224	     33.29423321	    -20.29479956	    -25.15498184	      0.00000000	      5.82904802	     14.02450035	     15.51212496	   -442.89796494	    -15.49991466	   -191.50887218	    135.93694699	     77.27197566	   -294.66004180	    -18.98597265	   -129.55029292	     48.75596115	    119.74817918
      7.35000000	      9.97480793	      5.17631692	    -45.54653146	     -2.64577284	      1.04525004	      0.04543387	     -1.68489741	    -37.97915505	     -5.14871715	     48.31255722	    -29.90846384	    -35.00000000	      0.00000000	     23.44822041	    -12.59193977	     -8.90537658	     32.65144380	    -15.90012196	    -24.39149442	      0.00000000	      6.82643000	     13.39500489	     20.79678352	   -442.79886313	     -6.89040288	   -203.26549985	    125.37521881	     70.66749293	   -298.93992165	    -29.77213097	   -150.98612097	     26.56372672	    119.74817918
      7.36666670	      8.31650872	      5.86106860	    -40.63517465	     -2.59490661	      1.05245279	      0.04849132	     -6.60807550	    -34.04846559	     -5.14381625	     46.87415235	    -40.10859402	    -35.00000000	      0.00000000	     21.91357067	     -9.47539114	     -5.67364867	     30.26649008	    -11.83943534	    -22.48833823	      0.00000000	      7.34706119	     -1.20800213	    -45.31178857	   -296.71279079	    -33.67726048	    -39.01583405	    140.50880570	    110.01381542	   -442.38905822	      0.45445743	   -429.08261294	     77.33342753	     22.28967104
      7.38333330	      6.62526746	      5.77232684	    -35.43276679	     -2.54623562	      1.06473598	      0.04698865	    -10.65547733	    -27.55525085	     -3.31670921	     46.07110256	    -48.28574281	    -35.00000000	      0.00000000	     19.99385560	     -7.49079334	     -2.78817669	     27.56170098	     -8.20420924	    -18.76140859	      0.00000000	     11.64737292	     -5.32637724	    -39.83889225	   -289.28664592	    -26.25451497	    -46.50587022	    143.51444336	    108.01245746	   -438.87868686	     -1.11602007	   -428.63273539	     85.09603851	     23.21490959
      7.40000000	      5.45194421	      5.43417003	    -29.94490495	     -2.50026801	      1.07869643	      0.04316575	    -13.74800338	    -20.97497966	     -3.22191490	     46.04615060	    -42.18710715	    -24.95035955	      0.00000000	     17.72453158	     -5.80920577	      0.56909779	     24.80300045	     -5.47549943	    -14.23564141	      0.00000000	     14.43406541	     -8.01669249	    -32.91129742	   -279.43637617	    -24.88492798	    -46.92012906	    145.21529892	    105.40919933	   -430.97843163	     -6.67096934	   -425.46115921	     92.00863761	     24.64217995
      7.41666670	      4.29549872	      4.67303080	    -24.28053223	     -2.46040564	      1.09622998	      0.03837641	    -14.95433826	    -14.33473227	     -4.78965812	     47.15830094	    -29.64450108	    -10.24265359	      0.00000000	     15.46554433	     -5.20871443	      4.30419336	     21.88252731	     -3.53862026	     -8.53225513	      0.00000000	     16.23965358	     -9.21715702	    -25.58293751	   -268.68433319	    -25.73536662	    -39.75312625	    143.81226276	    101.31331181	   -418.25420744	    -15.32232483	   -416.43960867	     94.29814568	     27.38037450
      7.43333330	      4.12098091	      3.19357117	    -18.77922824	     -2.42896887	      1.11598542	      0.03279064	    -15.04058559	     -8.03693267	     -7.75479569	     49.60572541	    -18.54406513	     -0.05899947	      0.00000000	     12.11541559	     -5.78916783	      8.09532568	     18.34097997	     -2.49873158	     -1.84595045	      0.00000000	     15.15447287	    -10.12498046	    -17.16222050	   -259.97185439	    -27.12740695	    -31.18353022	    140.20377444	    100.07926362	   -399.21842127	    -24.81752507	   -401.21012633	     91.74316150	     29.25308891
      7.45000000	      3.79427913	      0.73704124	    -13.09031390	     -2.40604862	      1.13780723	      0.02500552	    -12.38702583	     -1.23138589	    -11.40170007	     53.78282292	    -11.06675231	      2.33015636	      0.00000000	     10.22900846	     -8.27477764	     10.99921470	     15.84769918	     -3.70599545	      4.14297067	      0.00000000	     12.12414959	    -10.11690097	     -7.62977430	   -253.04773608	    -29.16516661	    -23.39811471	    130.89266230	    101.38132729	   -372.92010271	    -29.60638324	   -376.62205322	     82.27318172	     31.48269421
      7.46666670	      4.26499906	     -2.00625412	     -6.71503356	     -2.39062774	      1.16402136	      0.01602153	     -7.78869890	      4.58810429	    -16.64885960	     58.67156891	     -6.28817906	      0.12808832	      0.00000000	      9.76718662	    -11.37247907	     11.63226980	     15.11991446	     -6.48319805	      7.89868457	      0.00000000	      5.94167635	    -11.28441574	     -2.09384534	   -251.04844797	    -28.80871879	    -24.23540964	    114.63054702	    105.13814090	   -351.93928135	    -24.95591609	   -357.16729585	     75.52474779	     34.34561939
      7.48333330	      5.15089874	     -4.64038873	      0.31250877	     -2.37952710	      1.18943746	      0.00830855	     -0.73078910	      8.96189424	    -22.20067728	     63.34002429	     -4.74772909	     -4.22836696	      0.00000000	     11.04378180	    -14.61684164	     10.25027392	     16.04562617	    -10.10552023	      7.62126584	      0.00000000	     -1.17989943	    -12.30501913	     -0.37764109	   -247.28428686	    -28.57007031	    -25.99548504	     90.55904540	    112.41333990	   -340.57510567	    -16.73803078	   -346.85697183	     75.44188189	     39.81134657
      7.50000000	      6.26728107	     -6.61834622	      7.92690172	     -2.37147719	      1.20896372	      0.00290927	      7.60849411	     11.31345502	    -26.63065628	     66.29943786	     -5.04102752	     -7.24640782	      0.00000000	     14.09794257	    -17.36922788	      7.15957317	     18.50945146	    -13.48958460	      3.75569505	      0.00000000	     -8.22874008	    -13.10736617	     -3.53239378	   -242.55614468	    -28.26423599	    -25.08543702	     61.78053619	    119.74817918	   -336.40705494	    -10.69781453	   -343.02375203	     79.79615970	     45.61848395
      7.51666670	      7.17378834	     -7.64601630	     15.46677019	     -2.36307969	      1.22192295	     -0.00106499	     15.37852208	     11.87683489	    -27.69490648	     66.98527790	     -6.75309830	     -7.30186416	      0.00000000	     17.63203331	    -18.68780621	      5.54216331	     21.36026386	    -14.76010220	     -1.66373049	      0.00000000	    -14.08939266	    -13.59727656	     -7.79449720	   -238.16952231	    -30.28041803	     -5.28775630	     30.83101620	    119.74817918	   -333.75733090	     -6.80429304	   -339.25649697	     82.90683269	     59.72178614
      7.53333330	      7.33361413	     -7.45918430	     22.09335013	     -2.34837044	      1.23014910	     -0.00408724	     21.46857131	     11.22634655	    -24.34671300	     66.14216243	     -6.95133003	     -5.37540467	      0.00000000	     20.45288572	    -18.42290176	      4.19696958	     24.30673234	    -14.12855207	     -5.64174579	      0.00000000	    -18.48076432	    -13.73300521	    -13.18050618	   -237.23311945	    -22.92374845	     35.51167653	      5.73740349	    118.41563659	   -332.92181692	     -4.73266760	   -337.57495131	     86.65205764	     66.30145057
      7.55000000	      6.33528592	     -6.74273113	     27.82203332	     -2.32503000	      1.23499076	     -0.00719869	     26.15169216	      9.69554509	    -18.81077472	     64.10395719	     -6.97202943	     -5.34820960	      0.00000000	     22.86167005	    -17.29969451	      2.93920785	     27.81080156	    -11.79645611	     -7.61986272	      0.00000000	    -20.69480012	    -15.36246759	    -17.09264863	   -247.11814087	    -14.27957354	     38.59825024	      2.74327778	    119.07670695	   -331.55620987	     -2.42491731	   -333.96591419	     87.57232515	     66.94347737
